<?xml version="1.0" encoding="UTF-8" standalone="no"?>
<svg
   xmlns:dc="http://purl.org/dc/elements/1.1/"
   xmlns:cc="http://creativecommons.org/ns#"
   xmlns:rdf="http://www.w3.org/1999/02/22-rdf-syntax-ns#"
   xmlns:svg="http://www.w3.org/2000/svg"
   xmlns="http://www.w3.org/2000/svg"
   xmlns:sodipodi="http://sodipodi.sourceforge.net/DTD/sodipodi-0.dtd"
   xmlns:inkscape="http://www.inkscape.org/namespaces/inkscape"
   width="24"
   height="24"
   viewBox="0 0 6.35 6.35"
   version="1.1"
   id="svg8"
   inkscape:version="1.0.2 (e86c870879, 2021-01-15)"
   sodipodi:docname="mask-default.svg">
  <defs
     id="defs2" />
  <sodipodi:namedview
     id="base"
     pagecolor="#ffffff"
     bordercolor="#666666"
     borderopacity="1.0"
     inkscape:pageopacity="0"
     inkscape:pageshadow="2"
     inkscape:zoom="16"
     inkscape:cx="33.381171"
     inkscape:cy="26.265198"
     inkscape:document-units="mm"
     inkscape:current-layer="g860"
     inkscape:document-rotation="0"
     showgrid="false"
     units="px"
     width="24px"
     inkscape:window-width="1920"
     inkscape:window-height="1136"
     inkscape:window-x="0"
     inkscape:window-y="27"
     inkscape:window-maximized="1"
     showborder="true"
     borderlayer="false"
     inkscape:pagecheckerboard="true"
     inkscape:showpageshadow="false" />
  <metadata
     id="metadata5">
    <rdf:RDF>
      <cc:Work
         rdf:about="">
        <dc:format>image/svg+xml</dc:format>
        <dc:type
           rdf:resource="http://purl.org/dc/dcmitype/StillImage" />
        <dc:title></dc:title>
      </cc:Work>
    </rdf:RDF>
  </metadata>
  <g
     inkscape:label="Capa 1"
     inkscape:groupmode="layer"
     id="layer1">
    <g
       id="g860"
       transform="matrix(1.0091883,0,0,1.0091883,-0.02602076,-0.59261357)"
       style="stroke-width:0.990895">
      <path
         id="rect841"
         style="fill:#000000;stroke:none;stroke-width:3;paint-order:stroke fill markers"
         d="M 0.99023438 3.5527344 C 0.99023438 3.5527355 -1.229338 11.964023 1.0273438 14.220703 C 2.9236751 16.117035 7.3711766 15.150157 9.0722656 14.220703 C 10.979745 13.178482 10.839577 12.284508 11.962891 12.222656 C 13.086204 12.284504 12.944083 13.178482 14.851562 14.220703 C 16.552652 15.150158 21.000154 16.117035 22.896484 14.220703 C 25.153166 11.964023 23.126953 3.5976575 23.126953 3.5976562 C 23.126953 3.5976562 16.773564 6.4762526 11.962891 6.5996094 C 7.1522168 6.4762526 0.99023437 3.5527344 0.99023438 3.5527344 z M 5.9023438 8.3984375 C 7.5917974 8.3781457 9.3828125 9.9023437 9.3828125 9.9023438 C 9.3828125 9.9023438 7.2350536 11.251953 5.7441406 11.251953 C 4.2532269 11.251953 2.4902344 9.7851563 2.4902344 9.7851562 C 2.4902344 9.7851562 4.2128903 8.4187457 5.9023438 8.3984375 z M 17.847656 8.3984375 C 19.53711 8.3781457 21.330078 9.9023438 21.330078 9.9023438 C 21.330078 9.9023438 19.180366 11.251953 17.689453 11.251953 C 16.198539 11.251953 14.4375 9.7851562 14.4375 9.7851562 C 14.4375 9.7851562 16.158203 8.4187457 17.847656 8.3984375 z "
         transform="matrix(0.2621744,0,0,0.2621744,0.02578385,0.58721803)" />
    </g>
    <text
       xml:space="preserve"
       style="font-style:normal;font-variant:normal;font-weight:normal;font-stretch:normal;font-size:3.88056px;line-height:6.61458px;font-family:'Fira Sans';-inkscape-font-specification:'Fira Sans, Normal';font-variant-ligatures:normal;font-variant-caps:normal;font-variant-numeric:normal;font-feature-settings:normal;text-align:center;letter-spacing:0px;word-spacing:0px;writing-mode:lr-tb;text-anchor:middle;fill:#000000;fill-opacity:1;stroke:#ffffff;stroke-width:0.79375;stroke-linecap:butt;stroke-linejoin:miter;stroke-miterlimit:4;stroke-dasharray:none;stroke-opacity:1;paint-order:stroke fill markers"
       x="4.7730064"
       y="7.9530144"
       id="text859"
       inkscape:transform-center-x="0.031341173"
       inkscape:transform-center-y="-0.0098531287"><tspan
         sodipodi:role="line"
         id="tspan857"
         x="4.7730064"
         y="7.9530144"
         style="font-size:5.64444px;stroke:#ffffff;stroke-width:0.79375;stroke-miterlimit:4;stroke-dasharray:none;paint-order:stroke fill markers">*</tspan></text>
  </g>
</svg>
